<svg width="16" height="17" viewBox="0 0 16 17" fill="none" xmlns="http://www.w3.org/2000/svg">
<g id="Social icon" clip-path="url(#clip0_312_1718)">
<path id="Vector" d="M16 8.52631C16 4.10803 12.4183 0.526306 8 0.526306C3.58172 0.526306 0 4.10803 0 8.52631C0 12.5193 2.92547 15.829 6.75 16.4291V10.8388H4.71875V8.52631H6.75V6.76381C6.75 4.75881 7.94438 3.65131 9.77172 3.65131C10.6467 3.65131 11.5625 3.80756 11.5625 3.80756V5.77631H10.5538C9.56 5.77631 9.25 6.39302 9.25 7.02631V8.52631H11.4688L11.1141 10.8388H9.25V16.4291C13.0745 15.829 16 12.5193 16 8.52631Z" fill="#B8B8B8"/>
</g>
<defs>
<clipPath id="clip0_312_1718">
<rect width="16" height="16" fill="white" transform="translate(0 0.526306)"/>
</clipPath>
</defs>
</svg>
