<svg width="17" height="17" viewBox="0 0 17 17" fill="none" xmlns="http://www.w3.org/2000/svg">
<g id="Icon / Instagram">
<path id="Vector" fill-rule="evenodd" clip-rule="evenodd" d="M11.2455 2.52631H5.91219C4.07124 2.52631 2.57886 4.01869 2.57886 5.85964V11.193C2.57886 13.0339 4.07124 14.5263 5.91219 14.5263H11.2455C13.0865 14.5263 14.5789 13.0339 14.5789 11.193V5.85964C14.5789 4.01869 13.0865 2.52631 11.2455 2.52631ZM13.4122 11.193C13.4085 12.388 12.4406 13.356 11.2455 13.3596H5.91219C4.71709 13.356 3.74918 12.388 3.74552 11.193V5.85964C3.74918 4.66454 4.71709 3.69663 5.91219 3.69297H11.2455C12.4406 3.69663 13.4085 4.66454 13.4122 5.85964V11.193ZM11.7455 6.02631C12.1137 6.02631 12.4122 5.72783 12.4122 5.35964C12.4122 4.99145 12.1137 4.69297 11.7455 4.69297C11.3773 4.69297 11.0789 4.99145 11.0789 5.35964C11.0789 5.72783 11.3773 6.02631 11.7455 6.02631ZM8.57886 5.52631C6.922 5.52631 5.57886 6.86945 5.57886 8.52631C5.57886 10.1832 6.922 11.5263 8.57886 11.5263C10.2357 11.5263 11.5789 10.1832 11.5789 8.52631C11.5807 7.73011 11.2651 6.96602 10.7021 6.40303C10.1391 5.84003 9.37506 5.52453 8.57886 5.52631ZM6.74552 8.52631C6.74552 9.53884 7.56632 10.3596 8.57886 10.3596C9.59139 10.3596 10.4122 9.53884 10.4122 8.52631C10.4122 7.51377 9.59139 6.69297 8.57886 6.69297C7.56632 6.69297 6.74552 7.51377 6.74552 8.52631Z" fill="#B8B8B8"/>
</g>
</svg>
