<svg width="17" height="17" viewBox="0 0 17 17" fill="none" xmlns="http://www.w3.org/2000/svg">
<g id="Group">
<path id="Vector" d="M14.9209 0.526306H1.28647C0.63335 0.526306 0.105225 1.04193 0.105225 1.67943V15.3701C0.105225 16.0076 0.63335 16.5263 1.28647 16.5263H14.9209C15.574 16.5263 16.1052 16.0076 16.1052 15.3732V1.67943C16.1052 1.04193 15.574 0.526306 14.9209 0.526306ZM4.8521 14.1607H2.4771V6.52318H4.8521V14.1607ZM3.6646 5.48256C2.9021 5.48256 2.28647 4.86693 2.28647 4.10756C2.28647 3.34818 2.9021 2.73256 3.6646 2.73256C4.42397 2.73256 5.0396 3.34818 5.0396 4.10756C5.0396 4.86381 4.42397 5.48256 3.6646 5.48256ZM13.7396 14.1607H11.3677V10.4482C11.3677 9.56381 11.3521 8.42318 10.1333 8.42318C8.89897 8.42318 8.71147 9.38881 8.71147 10.3857V14.1607H6.34273V6.52318H8.61772V7.56693H8.64897C8.9646 6.96693 9.7396 6.33256 10.8927 6.33256C13.2959 6.33256 13.7396 7.91381 13.7396 9.97006V14.1607Z" fill="#B8B8B8"/>
</g>
</svg>
